<svg width="542" height="131" viewBox="0 0 542 131" fill="none" xmlns="http://www.w3.org/2000/svg">
<rect width="542" height="131" fill="white"/>
<g clip-path="url(#clip0)">
<path d="M167 24.8736C162.18 27.0132 157 28.4542 151.564 29.1038C157.115 25.7796 161.378 20.5123 163.381 14.2353C158.19 17.3138 152.437 19.5517 146.313 20.758C141.417 15.5343 134.425 12.2703 126.696 12.2703C109.344 12.2703 96.593 28.4597 100.512 45.2659C78.182 44.1469 58.3792 33.4486 45.1209 17.1882C38.0796 29.2675 41.4693 45.0694 53.4339 53.0713C49.0345 52.9294 44.8862 51.7231 41.2673 49.709C40.9725 62.1594 49.8969 73.8075 62.8223 76.4002C59.0396 77.4264 54.8968 77.6666 50.6829 76.8587C54.0998 87.5352 64.0231 95.3024 75.7913 95.5208C64.4925 104.38 50.2572 108.337 36 106.656C47.8937 114.281 62.0253 118.73 77.1995 118.73C127.1 118.73 155.292 76.5858 153.589 38.7868C158.84 34.9933 163.398 30.2609 167 24.8736V24.8736Z" fill="#2AA9E0"/>
</g>
<path d="M246.734 52.5703H236.281V81H229.25V52.5703H218.938V46.875H246.734V52.5703ZM271.25 71.7891L274.578 55.6406H281.117L274.648 81H268.977L264.172 65.0391L259.367 81H253.719L247.25 55.6406H253.789L257.094 71.7656L261.734 55.6406H266.633L271.25 71.7891ZM291.641 81H284.844V55.6406H291.641V81ZM284.445 49.0781C284.445 48.0625 284.781 47.2266 285.453 46.5703C286.141 45.9141 287.07 45.5859 288.242 45.5859C289.398 45.5859 290.32 45.9141 291.008 46.5703C291.695 47.2266 292.039 48.0625 292.039 49.0781C292.039 50.1094 291.688 50.9531 290.984 51.6094C290.297 52.2656 289.383 52.5938 288.242 52.5938C287.102 52.5938 286.18 52.2656 285.477 51.6094C284.789 50.9531 284.445 50.1094 284.445 49.0781ZM305.352 49.4062V55.6406H309.688V60.6094H305.352V73.2656C305.352 74.2031 305.531 74.875 305.891 75.2812C306.25 75.6875 306.938 75.8906 307.953 75.8906C308.703 75.8906 309.367 75.8359 309.945 75.7266V80.8594C308.617 81.2656 307.25 81.4688 305.844 81.4688C301.094 81.4688 298.672 79.0703 298.578 74.2734V60.6094H294.875V55.6406H298.578V49.4062H305.352ZM321.57 49.4062V55.6406H325.906V60.6094H321.57V73.2656C321.57 74.2031 321.75 74.875 322.109 75.2812C322.469 75.6875 323.156 75.8906 324.172 75.8906C324.922 75.8906 325.586 75.8359 326.164 75.7266V80.8594C324.836 81.2656 323.469 81.4688 322.062 81.4688C317.312 81.4688 314.891 79.0703 314.797 74.2734V60.6094H311.094V55.6406H314.797V49.4062H321.57ZM341.352 81.4688C337.633 81.4688 334.602 80.3281 332.258 78.0469C329.93 75.7656 328.766 72.7266 328.766 68.9297V68.2734C328.766 65.7266 329.258 63.4531 330.242 61.4531C331.227 59.4375 332.617 57.8906 334.414 56.8125C336.227 55.7188 338.289 55.1719 340.602 55.1719C344.07 55.1719 346.797 56.2656 348.781 58.4531C350.781 60.6406 351.781 63.7422 351.781 67.7578V70.5234H335.633C335.852 72.1797 336.508 73.5078 337.602 74.5078C338.711 75.5078 340.109 76.0078 341.797 76.0078C344.406 76.0078 346.445 75.0625 347.914 73.1719L351.242 76.8984C350.227 78.3359 348.852 79.4609 347.117 80.2734C345.383 81.0703 343.461 81.4688 341.352 81.4688ZM340.578 60.6562C339.234 60.6562 338.141 61.1094 337.297 62.0156C336.469 62.9219 335.938 64.2188 335.703 65.9062H345.125V65.3672C345.094 63.8672 344.688 62.7109 343.906 61.8984C343.125 61.0703 342.016 60.6562 340.578 60.6562ZM369.898 61.9922C368.977 61.8672 368.164 61.8047 367.461 61.8047C364.898 61.8047 363.219 62.6719 362.422 64.4062V81H355.648V55.6406H362.047L362.234 58.6641C363.594 56.3359 365.477 55.1719 367.883 55.1719C368.633 55.1719 369.336 55.2734 369.992 55.4766L369.898 61.9922ZM411.547 70.1719C411.125 73.7812 409.789 76.5703 407.539 78.5391C405.305 80.4922 402.328 81.4688 398.609 81.4688C394.578 81.4688 391.344 80.0234 388.906 77.1328C386.484 74.2422 385.273 70.375 385.273 65.5312V62.25C385.273 59.0781 385.836 56.2891 386.961 53.8828C388.102 51.4766 389.711 49.6328 391.789 48.3516C393.867 47.0547 396.273 46.4062 399.008 46.4062C402.633 46.4062 405.539 47.4219 407.727 49.4531C409.914 51.4688 411.188 54.2656 411.547 57.8438H407.023C406.633 55.125 405.781 53.1562 404.469 51.9375C403.172 50.7188 401.352 50.1094 399.008 50.1094C396.133 50.1094 393.875 51.1719 392.234 53.2969C390.609 55.4219 389.797 58.4453 389.797 62.3672V65.6719C389.797 69.375 390.57 72.3203 392.117 74.5078C393.664 76.6953 395.828 77.7891 398.609 77.7891C401.109 77.7891 403.023 77.2266 404.352 76.1016C405.695 74.9609 406.586 72.9844 407.023 70.1719H411.547ZM421.742 81H417.406V45H421.742V81ZM427.555 68.0859C427.555 65.6016 428.039 63.3672 429.008 61.3828C429.992 59.3984 431.352 57.8672 433.086 56.7891C434.836 55.7109 436.828 55.1719 439.062 55.1719C442.516 55.1719 445.305 56.3672 447.43 58.7578C449.57 61.1484 450.641 64.3281 450.641 68.2969V68.6016C450.641 71.0703 450.164 73.2891 449.211 75.2578C448.273 77.2109 446.922 78.7344 445.156 79.8281C443.406 80.9219 441.391 81.4688 439.109 81.4688C435.672 81.4688 432.883 80.2734 430.742 77.8828C428.617 75.4922 427.555 72.3281 427.555 68.3906V68.0859ZM431.914 68.6016C431.914 71.4141 432.562 73.6719 433.859 75.375C435.172 77.0781 436.922 77.9297 439.109 77.9297C441.312 77.9297 443.062 77.0703 444.359 75.3516C445.656 73.6172 446.305 71.1953 446.305 68.0859C446.305 65.3047 445.641 63.0547 444.312 61.3359C443 59.6016 441.25 58.7344 439.062 58.7344C436.922 58.7344 435.195 59.5859 433.883 61.2891C432.57 62.9922 431.914 65.4297 431.914 68.6016ZM460.18 55.6406L460.32 58.8281C462.258 56.3906 464.789 55.1719 467.914 55.1719C473.273 55.1719 475.977 58.1953 476.023 64.2422V81H471.688V64.2188C471.672 62.3906 471.25 61.0391 470.422 60.1641C469.609 59.2891 468.336 58.8516 466.602 58.8516C465.195 58.8516 463.961 59.2266 462.898 59.9766C461.836 60.7266 461.008 61.7109 460.414 62.9297V81H456.078V55.6406H460.18ZM493.086 81.4688C489.648 81.4688 486.852 80.3438 484.695 78.0938C482.539 75.8281 481.461 72.8047 481.461 69.0234V68.2266C481.461 65.7109 481.938 63.4688 482.891 61.5C483.859 59.5156 485.203 57.9688 486.922 56.8594C488.656 55.7344 490.531 55.1719 492.547 55.1719C495.844 55.1719 498.406 56.2578 500.234 58.4297C502.062 60.6016 502.977 63.7109 502.977 67.7578V69.5625H485.797C485.859 72.0625 486.586 74.0859 487.977 75.6328C489.383 77.1641 491.164 77.9297 493.32 77.9297C494.852 77.9297 496.148 77.6172 497.211 76.9922C498.273 76.3672 499.203 75.5391 500 74.5078L502.648 76.5703C500.523 79.8359 497.336 81.4688 493.086 81.4688ZM492.547 58.7344C490.797 58.7344 489.328 59.375 488.141 60.6562C486.953 61.9219 486.219 63.7031 485.938 66H498.641V65.6719C498.516 63.4688 497.922 61.7656 496.859 60.5625C495.797 59.3438 494.359 58.7344 492.547 58.7344Z" fill="#2AA9E0"/>
<defs>
<clipPath id="clip0">
<rect width="131" height="131" fill="white" transform="translate(36)"/>
</clipPath>
</defs>
</svg>
